<!-- icon666.com - MILLIONS vector ICONS FREE --><svg clip-rule="evenodd" fill-rule="evenodd" image-rendering="optimizeQuality" shape-rendering="geometricPrecision" text-rendering="geometricPrecision" viewBox="0 0 512 512" xmlns="http://www.w3.org/2000/svg"><g id="Layer_x0020_1"><path d="m425 512h-338c-4 0-7-3-7-7v-447c0-4 3-8 7-8h67c4-14 17-24 32-24h10v-19c0-4 3-7 8-7h105c4 0 7 3 7 7v19h10c16 0 28 10 32 24h67c4 0 7 4 7 8v447c0 4-4 7-7 7zm-61-153h-215c-9 0-9-15 0-15h215c10 0 10 15 0 15zm0 41h-215c-9 0-9-15 0-15h215c10 0 10 15 0 15zm0 41h-215c-9 0-9-15 0-15h215c10 0 10 15 0 15zm32-145h-41c-18 0 5-36-23-78l-50 66c-14 19-43 14-58-2-14-16-16-45 5-57l64-40c-61-27-129 18-129 84v20c0 4-3 7-7 7h-41c-4 0-8-3-8-7v-21c0-81 66-147 148-147 33 0 65 11 91 32l33-21c7-4 15 4 10 10l-23 30c23 27 36 61 36 96v20c0 5-3 8-7 8zm-46-126c3-6 2-3 5-6l-119 73c-17 11-6 45 21 45 4 0 9-2 13-7 27-35 54-70 80-105zm-8 36c12 17 20 39 20 62v13h26v-13c0-31-10-60-30-84zm-9-45c-86-62-211-2-211 108v13h27v-13c0-83 90-132 159-93zm-70 106c-26 0-26-39 0-39 10 0 20 9 20 19 0 11-10 20-20 20zm0-25c-7 0-7 11 0 11s7-11 0-11zm44-177h-102c-10 0-10-15 0-15h102c10 0 10 15 0 15zm-27-23h-48c-10 0-10-15 0-15h48c10 0 9 15 0 15zm-127 23h-58v433h322v-433h-58v19c-1 5-4 8-8 8h-191c-4 0-7-3-7-7zm191-5c-1-11-7-19-18-19-27 0-24 3-24-26h-91c0 28 3 26-25 26-10 0-18 8-18 18v19h176z" fill="#4d4d4d"></path><path d="m149 344h215c10 0 10 15 0 15h-215c-9 0-9-15 0-15zm0 41h215c10 0 10 15 0 15h-215c-9 0-9-15 0-15zm0 41h215c10 0 10 15 0 15h-215c-9 0-9-15 0-15zm-54 72h322v-433h-58v19c-1 5-4 8-8 8h-191c-4 0-7-3-7-7v-20h-58zm301-202h-41c-18 0 5-36-23-78l-50 66c-14 19-43 14-58-2-14-16-16-45 5-57l64-40c-61-27-129 18-129 84v20c0 4-3 7-7 7h-41c-4 0-8-3-8-7v-21c0-81 66-147 148-147 33 0 65 11 91 32l33-21c7-4 15 4 10 10l-23 30c23 27 36 61 36 96v20c0 5-3 8-7 8z" fill="#d9f2f2"></path><path d="m342 206c12 17 20 39 20 62v13h26v-13c0-31-10-60-30-84z" fill="#ff700d"></path><path d="m270 275 80-105c3-6 2-3 5-6l-119 73c-17 11-6 45 21 45 4 0 9-2 13-7zm-7-47c10 0 20 9 20 19 0 11-10 20-20 20-26 0-26-39 0-39z" fill="#ffe600"></path><path d="m149 269c0-83 90-132 159-93l25-15c-86-62-211-2-211 108v13h27z" fill="#ff700d"></path><path d="m168 78h176v-18c-1-11-7-19-18-19-27 0-24 3-24-26h-91c0 28 3 26-25 26-10 0-18 8-18 18zm139-13h-102c-10 0-10-15 0-15h102c10 0 10 15 0 15zm-27-23h-48c-10 0-10-15 0-15h48c10 0 9 15 0 15z" fill="#99a4ac"></path><path d="m263 253c7 0 7-11 0-11s-7 11 0 11z" fill="#f1f1f1"></path></g></svg>