<?xml version="1.0" encoding="UTF-8"?> <svg xmlns="http://www.w3.org/2000/svg" id="Capa_1" viewBox="0 0 512 512"><path d="m470.5 451h-429c-18.778 0-34-15.222-34-34v-276h497v276c0 18.778-15.222 34-34 34z" fill="#f5f5f5"></path><path d="m474.5 141v276c0 18.778-15.222 34-34 34h30c18.778 0 34-15.222 34-34v-276z" fill="#e6e6e6"></path><path d="m504.5 141h-497v-46c0-18.778 15.222-34 34-34h429c18.778 0 34 15.222 34 34z" fill="#8c9eff"></path><path d="m470.5 61h-30c18.778 0 34 15.222 34 34v46h30v-46c0-18.778-15.222-34-34-34z" fill="#7488ed"></path><circle cx="64" cy="100.672" fill="#bdf9ff" r="16"></circle><circle cx="121" cy="100.672" fill="#ffca28" r="16"></circle><circle cx="178" cy="100.672" fill="#ff3d7a" r="16"></circle><path d="m360 215.005v43.006c0 19.333-15.67 35.005-35 35.005h-70.044v31.982c0 .963-1.228 1.37-1.803.596l-24.197-32.578h-41.956c-19.33 0-35-15.672-35-35.005v-43.006c0-19.333 15.67-35.005 35-35.005h138c19.33 0 35 15.672 35 35.005z" fill="#ff3d7a"></path><path d="m325 180h-30c19.33 0 35 15.672 35 35.005v43.006c0 19.333-15.67 35.005-35 35.005h30c19.33 0 35-15.672 35-35.005v-43.006c0-19.333-15.67-35.005-35-35.005z" fill="#eb3870"></path><path d="m237 219.252v34.512c0 3.671 3.939 5.947 7.05 4.074l28.663-17.256c3.048-1.835 3.048-6.312 0-8.147l-28.663-17.256c-3.111-1.874-7.05.402-7.05 4.073z" fill="#f5f5f5"></path><circle cx="152" cy="379" fill="#ffd740" r="27.5"></circle><path d="m152 351.5c-5.536 0-10.685 1.641-15 4.456 7.523 4.907 12.5 13.392 12.5 23.044s-4.977 18.137-12.5 23.044c4.315 2.814 9.464 4.456 15 4.456 15.188 0 27.5-12.312 27.5-27.5s-12.312-27.5-27.5-27.5z" fill="#ffca28"></path><path d="m504.5 400.181c-4.142 0-7.5 3.357-7.5 7.5v9.319c0 14.612-11.888 26.5-26.5 26.5h-429c-14.612 0-26.5-11.888-26.5-26.5v-193.319c0-4.143-3.358-7.5-7.5-7.5s-7.5 3.357-7.5 7.5v193.319c0 22.883 18.617 41.5 41.5 41.5h429c22.883 0 41.5-18.617 41.5-41.5v-9.319c0-4.143-3.358-7.5-7.5-7.5z"></path><path d="m470.5 53.5h-22.352c-4.142 0-7.5 3.357-7.5 7.5s3.358 7.5 7.5 7.5h22.352c14.612 0 26.5 11.888 26.5 26.5v38.5h-482v-38.5c0-14.612 11.888-26.5 26.5-26.5h374.276c4.142 0 7.5-3.357 7.5-7.5s-3.358-7.5-7.5-7.5h-374.276c-22.883 0-41.5 18.617-41.5 41.5v96.483c0 4.143 3.358 7.5 7.5 7.5s7.5-3.357 7.5-7.5v-42.983h482v226.994c0 4.143 3.358 7.5 7.5 7.5s7.5-3.357 7.5-7.5v-280.494c0-22.883-18.617-41.5-41.5-41.5z"></path><path d="m40.5 100.672c0 12.958 10.542 23.5 23.5 23.5s23.5-10.542 23.5-23.5-10.542-23.5-23.5-23.5-23.5 10.542-23.5 23.5zm32 0c0 4.687-3.813 8.5-8.5 8.5s-8.5-3.813-8.5-8.5 3.813-8.5 8.5-8.5 8.5 3.813 8.5 8.5z"></path><path d="m97.5 100.672c0 12.958 10.542 23.5 23.5 23.5s23.5-10.542 23.5-23.5-10.542-23.5-23.5-23.5-23.5 10.542-23.5 23.5zm32 0c0 4.687-3.813 8.5-8.5 8.5s-8.5-3.813-8.5-8.5 3.813-8.5 8.5-8.5 8.5 3.813 8.5 8.5z"></path><path d="m154.5 100.672c0 12.958 10.542 23.5 23.5 23.5s23.5-10.542 23.5-23.5-10.542-23.5-23.5-23.5-23.5 10.542-23.5 23.5zm32 0c0 4.687-3.813 8.5-8.5 8.5s-8.5-3.813-8.5-8.5 3.813-8.5 8.5-8.5 8.5 3.813 8.5 8.5z"></path><path d="m187 300.517h38.185l21.947 29.549c1.637 2.204 4.18 3.436 6.817 3.436.892 0 1.794-.141 2.675-.433 3.488-1.153 5.832-4.396 5.832-8.07v-24.481h62.544c23.435 0 42.5-19.067 42.5-42.505v-43.007c0-23.438-19.065-42.505-42.5-42.505h-138c-23.435 0-42.5 19.067-42.5 42.505v43.007c0 23.436 19.065 42.504 42.5 42.504zm-27.5-85.512c0-15.166 12.336-27.505 27.5-27.505h138c15.164 0 27.5 12.339 27.5 27.505v43.007c0 15.166-12.336 27.505-27.5 27.505h-70.043c-4.142 0-7.5 3.357-7.5 7.5v12.329l-12.479-16.801c-1.415-1.905-3.648-3.028-6.021-3.028h-41.957c-15.164 0-27.5-12.339-27.5-27.505z"></path><path d="m235.707 264.432c1.848 1.044 3.904 1.565 5.96 1.565 2.167 0 4.333-.579 6.251-1.733l28.664-17.256c3.706-2.23 5.918-6.156 5.918-10.499 0-4.344-2.212-8.27-5.918-10.5l-28.663-17.255c-3.736-2.25-8.415-2.314-12.211-.17-3.829 2.164-6.208 6.252-6.208 10.668v34.513c0 4.416 2.378 8.503 6.207 10.667zm8.793-40.228 20.439 12.304-20.439 12.305z"></path><path d="m118.31 369.5h-49.31c-4.142 0-7.5 3.357-7.5 7.5s3.358 7.5 7.5 7.5h48.432c2.647 16.695 17.14 29.5 34.568 29.5s31.921-12.805 34.568-29.5h256.432c4.142 0 7.5-3.357 7.5-7.5s-3.358-7.5-7.5-7.5h-257.31c-4.15-14.698-17.682-25.5-33.69-25.5s-29.539 10.802-33.69 25.5zm33.69-10.5c10.443 0 19.042 8.045 19.925 18.263.007.191.02.38.041.567.022.387.034.778.034 1.171 0 11.028-8.972 20-20 20s-20-8.972-20-20c0-.393.012-.783.034-1.171.021-.187.034-.376.041-.567.883-10.218 9.482-18.263 19.925-18.263z"></path><path d="m418.5 228h25c4.142 0 7.5-3.357 7.5-7.5s-3.358-7.5-7.5-7.5h-25c-4.142 0-7.5 3.357-7.5 7.5s3.358 7.5 7.5 7.5z"></path><path d="m418.5 260h25c4.142 0 7.5-3.357 7.5-7.5s-3.358-7.5-7.5-7.5h-25c-4.142 0-7.5 3.357-7.5 7.5s3.358 7.5 7.5 7.5z"></path><path d="m95.5 301h-27c-4.142 0-7.5 3.357-7.5 7.5s3.358 7.5 7.5 7.5h27c4.142 0 7.5-3.357 7.5-7.5s-3.358-7.5-7.5-7.5z"></path></svg> 