<svg width="324" height="100" fill="none" xmlns="http://www.w3.org/2000/svg"><path d="M143.281 65.844V36.617c0-.61.219-1.133.657-1.57a2.14 2.14 0 011.57-.656h4.359c.641 0 1.172.218 1.594.656.437.437.656.96.656 1.57v29.18c0 .61-.226 1.133-.679 1.57a2.184 2.184 0 01-1.571.633h-4.359c-.61 0-1.133-.203-1.57-.61a2.065 2.065 0 01-.657-1.546zm15.563-.047v-29.18c0-.61.211-1.133.633-1.57a2.064 2.064 0 011.546-.656h6.891c.547 0 1.125.218 1.734.656.61.437 1.11.96 1.5 1.57l14.157 21.774V36.57c0-.61.211-1.126.633-1.548a2.18 2.18 0 011.57-.632h4.031c.609 0 1.125.21 1.547.632.437.422.656.954.656 1.594v29.18c0 .61-.219 1.133-.656 1.57a2.105 2.105 0 01-1.547.633h-7.781c-.61 0-1.235-.21-1.875-.633a5.196 5.196 0 01-1.524-1.57l-12.961-20.11v20.11a2.14 2.14 0 01-.656 1.57 2.104 2.104 0 01-1.547.633h-4.125a2.18 2.18 0 01-1.57-.633 2.14 2.14 0 01-.656-1.57zm44.039-1.758c-2.891-2.766-4.336-7.039-4.336-12.82 0-5.797 1.445-10.078 4.336-12.844 2.906-2.781 7.258-4.172 13.055-4.172h5.226c3.547 0 6.68.922 9.398 2.766 2.735 1.843 4.102 4.367 4.102 7.57 0 .922-.273 1.586-.82 1.992-.547.39-1.078.586-1.594.586h-2.789c-1.438 0-2.555-.86-3.352-2.578-1.156-2.469-3.078-3.703-5.765-3.703h-4.172c-3.422 0-5.742.734-6.961 2.203-1.219 1.469-1.828 4.188-1.828 8.156 0 3.97.609 6.696 1.828 8.18 1.219 1.469 3.539 2.203 6.961 2.203h4.664c2.687 0 4.602-1.234 5.742-3.703.797-1.734 1.922-2.602 3.375-2.602h2.789c.735 0 1.313.274 1.735.82.437.548.656 1.141.656 1.782 0 3.203-1.36 5.727-4.078 7.57-2.719 1.828-5.852 2.743-9.399 2.743h-5.718c-5.797 0-10.149-1.383-13.055-4.149zm36.82 1.805V36.617c0-.61.219-1.133.656-1.57a2.144 2.144 0 011.571-.656h4.359c.641 0 1.172.218 1.594.656.437.437.656.96.656 1.57v29.18c0 .61-.227 1.133-.68 1.57a2.182 2.182 0 01-1.57.633h-4.359c-.61 0-1.133-.203-1.571-.61a2.068 2.068 0 01-.656-1.546zm12.68-27.024v-2.203c0-.64.211-1.172.633-1.594.422-.421.953-.632 1.593-.632h29.743c.64 0 1.171.21 1.593.632.422.422.633.954.633 1.594v2.203c0 .64-.211 1.172-.633 1.594-.422.406-.953.61-1.593.61h-10.454v24.82c0 .61-.218 1.125-.656 1.547-.422.406-.937.609-1.547.609h-4.429c-.61 0-1.133-.203-1.571-.61a2.104 2.104 0 01-.633-1.546v-24.82h-10.453c-.64 0-1.171-.204-1.593-.61-.422-.422-.633-.953-.633-1.594zM54.609 91.667H45.39c-14.36 0-21.54 0-26.437-4.216-4.896-4.216-5.911-11.273-7.942-25.388L9.85 53.991C8.27 43.003 7.48 37.51 9.73 32.812c2.253-4.697 7.046-7.552 16.632-13.263l5.77-3.437C40.838 10.926 45.19 8.333 50 8.333c4.81 0 9.163 2.593 17.868 7.779l5.77 3.437c9.586 5.71 14.38 8.566 16.631 13.263 2.252 4.698 1.462 10.191-.12 21.18l-1.16 8.071c-2.032 14.115-3.047 21.172-7.943 25.388-4.896 4.216-12.077 4.216-26.437 4.216z" fill="#225378"/><path d="M72.707 50.8c-12.57-13.567-32.844-13.567-45.415 0a3.125 3.125 0 11-4.584-4.247c15.044-16.237 39.54-16.237 54.585 0a3.125 3.125 0 11-4.586 4.248z" fill="#fff"/><path d="M64.375 59.794c-7.969-8.6-20.781-8.6-28.75 0a3.125 3.125 0 11-4.584-4.247c10.442-11.27 27.476-11.27 37.918 0a3.125 3.125 0 11-4.584 4.248z" fill="#fff"/><path d="M56.041 68.79c-3.365-3.632-8.716-3.632-12.082 0a3.125 3.125 0 11-4.585-4.247c5.84-6.303 15.413-6.303 21.252 0a3.125 3.125 0 01-4.585 4.247z" fill="#fff"/><g clip-path="url(#clip0_9_93)"><path fill="#225378" d="M117 9h4v83h-4z"/></g><mask id="a" fill="#fff"><path fill-rule="evenodd" clip-rule="evenodd" d="M314.672 36.187c1.252-1.4 3.484-1.589 4.986-.422 1.502 1.167 1.705 3.248.453 4.648l-10.98 12.282V64.7c0 1.822-1.585 3.3-3.54 3.3s-3.54-1.478-3.54-3.3V52.695l-10.98-12.282c-1.252-1.4-1.049-3.481.453-4.648 1.502-1.167 3.734-.978 4.986.422l9.081 10.158 9.081-10.158zm3.475 1.268c-.501-.389-1.245-.326-1.662.14l-9.988 11.173c-.224.25-.556.396-.906.396s-.682-.145-.907-.396l-9.987-11.172c-.417-.467-1.161-.53-1.662-.14a1.05 1.05 0 00-.151 1.548l11.253 12.588c.177.198.274.447.274.705V64.7c0 .608.528 1.1 1.18 1.1.652 0 1.18-.492 1.18-1.1V52.297c0-.258.097-.507.274-.705l11.253-12.588a1.05 1.05 0 00-.151-1.549z"/></mask><path fill-rule="evenodd" clip-rule="evenodd" d="M314.672 36.187c1.252-1.4 3.484-1.589 4.986-.422 1.502 1.167 1.705 3.248.453 4.648l-10.98 12.282V64.7c0 1.822-1.585 3.3-3.54 3.3s-3.54-1.478-3.54-3.3V52.695l-10.98-12.282c-1.252-1.4-1.049-3.481.453-4.648 1.502-1.167 3.734-.978 4.986.422l9.081 10.158 9.081-10.158zm3.475 1.268c-.501-.389-1.245-.326-1.662.14l-9.988 11.173c-.224.25-.556.396-.906.396s-.682-.145-.907-.396l-9.987-11.172c-.417-.467-1.161-.53-1.662-.14a1.05 1.05 0 00-.151 1.548l11.253 12.588c.177.198.274.447.274.705V64.7c0 .608.528 1.1 1.18 1.1.652 0 1.18-.492 1.18-1.1V52.297c0-.258.097-.507.274-.705l11.253-12.588a1.05 1.05 0 00-.151-1.549z" fill="#225378"/><path d="M321.645 38.438l-.907-.704-3.067 3.949.906.704 3.068-3.949zm-31.985-1.007l.756.845 3.727-3.332-.755-.845-3.728 3.332zm25.012-1.244l-3.728-3.332 3.728 3.332zm4.986-.422l-3.067 3.949 3.067-3.949zm.453 4.648l-3.727-3.333 3.727 3.333zm-10.98 12.282l-3.727-3.333-1.273 1.424v1.909h5zm-7.08 0h5v-1.91l-1.273-1.423-3.727 3.333zm-10.98-12.282l3.727-3.333-3.727 3.333zm.453-4.648l-3.067-3.949 3.067 3.949zm4.986.422l3.727-3.332-3.727 3.332zm9.081 10.158l-3.728 3.333 3.728 4.17 3.728-4.17-3.728-3.333zm12.556-8.89l-3.067 3.949 3.067-3.949zm-1.662.14l-3.728-3.332 3.728 3.333zm-9.988 11.173l3.728 3.332-3.728-3.332zm-1.813 0l3.729-3.332h-.001l-3.728 3.332zm-9.987-11.172l3.727-3.332-3.727 3.332zm-1.662-.14l3.067 3.948-3.067-3.949zm-.151 1.548l3.727-3.332-3.727 3.332zm11.253 12.588l-3.727 3.333 3.727-3.333zm2.908 0l3.727 3.333-3.727-3.333zm11.253-12.588l-3.727-3.332 3.727 3.332zm.101.516a1.39 1.39 0 01-.906.476 1.295 1.295 0 01-.902-.282l6.134-7.898c-3.534-2.745-8.742-2.36-11.781 1.039l7.455 6.665zm-1.808.194a1.777 1.777 0 01-.65-1.227 1.86 1.86 0 01.443-1.407l7.455 6.665c3.226-3.609 2.624-9.025-1.114-11.929l-6.134 7.898zm-.207-2.634l-10.98 12.282 7.455 6.665 10.98-12.282-7.455-6.665zm-12.253 15.615V64.7h10V52.695h-10zm0 12.005c0-.588.265-1.055.554-1.324a1.34 1.34 0 01.906-.376v10c4.38 0 8.54-3.391 8.54-8.3h-10zm1.46-1.7c.291 0 .623.112.906.376.289.27.554.736.554 1.324h-10c0 4.909 4.16 8.3 8.54 8.3V63zm1.46 1.7V52.695h-10V64.7h10zm-1.273-15.338l-10.98-12.282-7.455 6.665 10.98 12.282 7.455-6.665zm-10.98-12.282c.313.35.496.867.443 1.407a1.777 1.777 0 01-.65 1.227l-6.134-7.898c-3.738 2.904-4.341 8.32-1.114 11.93l7.455-6.666zm-.207 2.634c-.309.24-.642.304-.902.282a1.39 1.39 0 01-.907-.476l7.455-6.665c-3.038-3.399-8.246-3.784-11.78-1.039l6.134 7.898zm-1.809-.194l9.081 10.158 7.456-6.665-9.082-10.158-7.455 6.665zm16.537 10.158l9.08-10.158-7.455-6.665-9.081 10.158 7.456 6.665zm11.895-16.171c-2.533-1.968-6.252-1.71-8.457.756l7.455 6.665a3.76 3.76 0 01-5.132.476l6.134-7.898zm-8.457.757l-9.987 11.171 7.455 6.665 9.988-11.172-7.456-6.664zm-9.987 11.171a3.784 3.784 0 012.821-1.271v10a6.215 6.215 0 004.634-2.064l-7.455-6.665zm2.821-1.271c1.006 0 2.053.412 2.822 1.272l-7.457 6.663a6.216 6.216 0 004.635 2.065v-10zm2.821 1.271l-9.988-11.172-7.455 6.665 9.988 11.172 7.455-6.665zm-9.988-11.172c-2.204-2.465-5.923-2.724-8.457-.756l6.135 7.897a3.761 3.761 0 01-5.133-.476l7.455-6.665zm-8.456-.757c-2.737 2.126-3.204 6.155-.812 8.83l7.455-6.664c1.558 1.742 1.227 4.384-.509 5.732l-6.134-7.898zm-.812 8.83l11.254 12.589 7.455-6.665-11.254-12.588-7.455 6.665zm11.254 12.59a3.944 3.944 0 01-.999-2.63h10a6.053 6.053 0 00-1.547-4.037l-7.454 6.666zm-.999-2.63V64.7h10V52.297h-10zm0 12.404c0 3.694 3.103 6.1 6.18 6.1v-10c1.773 0 3.82 1.421 3.82 3.9h-10zm6.18 6.1c3.076 0 6.18-2.406 6.18-6.1h-10c0-2.479 2.047-3.9 3.82-3.9v10zm6.18-6.1V52.297h-10V64.7h10zm0-12.403c0 1.012-.384 1.94-.999 2.628l-7.454-6.666a6.053 6.053 0 00-1.547 4.038h10zm-.999 2.628l11.254-12.588-7.455-6.665-11.254 12.588 7.455 6.665zm11.254-12.588c2.392-2.676 1.924-6.705-.812-8.83l-6.134 7.897c-1.735-1.348-2.067-3.99-.509-5.732l7.455 6.665z" fill="#225378" mask="url(#a)"/><defs><clipPath id="clip0_9_93"><rect x="117" y="9" width="4" height="83" rx="2" fill="#fff"/></clipPath></defs></svg>